COMMENT c64
STARTFONT 2.1
FONT c64
SIZE 8 75 75
FONTBOUNDINGBOX 8 8 0 -2
STARTPROPERTIES 3
FONT_DESCENT 2
FONT_ASCENT 6
DEFAULT_CHAR 0 
ENDPROPERTIES
CHARS 95
STARTCHAR C0032
ENCODING 32
SWIDTH 666 0
DWIDTH 8 0
BBX 8 8 0 -2
BITMAP
00
00
00
00
00
00
00
00
ENDCHAR
STARTCHAR C0033
ENCODING 33
SWIDTH 666 0
DWIDTH 8 0
BBX 8 8 0 -2
BITMAP
18
18
18
18
00
00
18
00
ENDCHAR
STARTCHAR C0034
ENCODING 34
SWIDTH 666 0
DWIDTH 8 0
BBX 8 8 0 -2
BITMAP
66
66
66
00
00
00
00
00
ENDCHAR
STARTCHAR C0035
ENCODING 35
SWIDTH 666 0
DWIDTH 8 0
BBX 8 8 0 -2
BITMAP
66
66
ff
66
ff
66
66
00
ENDCHAR
STARTCHAR C0036
ENCODING 36
SWIDTH 666 0
DWIDTH 8 0
BBX 8 8 0 -2
BITMAP
18
3e
60
3c
06
7c
18
00
ENDCHAR
STARTCHAR C0037
ENCODING 37
SWIDTH 666 0
DWIDTH 8 0
BBX 8 8 0 -2
BITMAP
62
66
0c
18
30
66
46
00
ENDCHAR
STARTCHAR C0038
ENCODING 38
SWIDTH 666 0
DWIDTH 8 0
BBX 8 8 0 -2
BITMAP
3c
66
3c
38
67
66
3f
00
ENDCHAR
STARTCHAR C0039
ENCODING 39
SWIDTH 666 0
DWIDTH 8 0
BBX 8 8 0 -2
BITMAP
06
0c
18
00
00
00
00
00
ENDCHAR
STARTCHAR C0040
ENCODING 40
SWIDTH 666 0
DWIDTH 8 0
BBX 8 8 0 -2
BITMAP
0c
18
30
30
30
18
0c
00
ENDCHAR
STARTCHAR C0041
ENCODING 41
SWIDTH 666 0
DWIDTH 8 0
BBX 8 8 0 -2
BITMAP
30
18
0c
0c
0c
18
30
00
ENDCHAR
STARTCHAR C0042
ENCODING 42
SWIDTH 666 0
DWIDTH 8 0
BBX 8 8 0 -2
BITMAP
00
66
3c
ff
3c
66
00
00
ENDCHAR
STARTCHAR C0043
ENCODING 43
SWIDTH 666 0
DWIDTH 8 0
BBX 8 8 0 -2
BITMAP
00
18
18
7e
18
18
00
00
ENDCHAR
STARTCHAR C0044
ENCODING 44
SWIDTH 666 0
DWIDTH 8 0
BBX 8 8 0 -2
BITMAP
00
00
00
00
00
18
18
30
ENDCHAR
STARTCHAR C0045
ENCODING 45
SWIDTH 666 0
DWIDTH 8 0
BBX 8 8 0 -2
BITMAP
00
00
00
7e
00
00
00
00
ENDCHAR
STARTCHAR C0046
ENCODING 46
SWIDTH 666 0
DWIDTH 8 0
BBX 8 8 0 -2
BITMAP
00
00
00
00
00
18
18
00
ENDCHAR
STARTCHAR C0047
ENCODING 47
SWIDTH 666 0
DWIDTH 8 0
BBX 8 8 0 -2
BITMAP
00
03
06
0c
18
30
60
00
ENDCHAR
STARTCHAR C0048
ENCODING 48
SWIDTH 666 0
DWIDTH 8 0
BBX 8 8 0 -2
BITMAP
3c
66
6e
76
66
66
3c
00
ENDCHAR
STARTCHAR C0049
ENCODING 49
SWIDTH 666 0
DWIDTH 8 0
BBX 8 8 0 -2
BITMAP
18
18
38
18
18
18
7e
00
ENDCHAR
STARTCHAR C0050
ENCODING 50
SWIDTH 666 0
DWIDTH 8 0
BBX 8 8 0 -2
BITMAP
3c
66
06
0c
30
60
7e
00
ENDCHAR
STARTCHAR C0051
ENCODING 51
SWIDTH 666 0
DWIDTH 8 0
BBX 8 8 0 -2
BITMAP
3c
66
06
1c
06
66
3c
00
ENDCHAR
STARTCHAR C0052
ENCODING 52
SWIDTH 666 0
DWIDTH 8 0
BBX 8 8 0 -2
BITMAP
06
0e
1e
66
7f
06
06
00
ENDCHAR
STARTCHAR C0053
ENCODING 53
SWIDTH 666 0
DWIDTH 8 0
BBX 8 8 0 -2
BITMAP
7e
60
7c
06
06
66
3c
00
ENDCHAR
STARTCHAR C0054
ENCODING 54
SWIDTH 666 0
DWIDTH 8 0
BBX 8 8 0 -2
BITMAP
3c
66
60
7c
66
66
3c
00
ENDCHAR
STARTCHAR C0055
ENCODING 55
SWIDTH 666 0
DWIDTH 8 0
BBX 8 8 0 -2
BITMAP
7e
66
0c
18
18
18
18
00
ENDCHAR
STARTCHAR C0056
ENCODING 56
SWIDTH 666 0
DWIDTH 8 0
BBX 8 8 0 -2
BITMAP
3c
66
66
3c
66
66
3c
00
ENDCHAR
STARTCHAR C0057
ENCODING 57
SWIDTH 666 0
DWIDTH 8 0
BBX 8 8 0 -2
BITMAP
3c
66
66
3e
06
66
3c
00
ENDCHAR
STARTCHAR C0058
ENCODING 58
SWIDTH 666 0
DWIDTH 8 0
BBX 8 8 0 -2
BITMAP
00
00
18
00
00
18
00
00
ENDCHAR
STARTCHAR C0059
ENCODING 59
SWIDTH 666 0
DWIDTH 8 0
BBX 8 8 0 -2
BITMAP
00
00
18
00
00
18
18
30
ENDCHAR
STARTCHAR C0060
ENCODING 60
SWIDTH 666 0
DWIDTH 8 0
BBX 8 8 0 -2
BITMAP
0e
18
30
60
30
18
0e
00
ENDCHAR
STARTCHAR C0061
ENCODING 61
SWIDTH 666 0
DWIDTH 8 0
BBX 8 8 0 -2
BITMAP
00
00
7e
00
7e
00
00
00
ENDCHAR
STARTCHAR C0062
ENCODING 62
SWIDTH 666 0
DWIDTH 8 0
BBX 8 8 0 -2
BITMAP
70
18
0c
06
0c
18
70
00
ENDCHAR
STARTCHAR C0063
ENCODING 63
SWIDTH 666 0
DWIDTH 8 0
BBX 8 8 0 -2
BITMAP
3c
66
06
0c
18
00
18
00
ENDCHAR
STARTCHAR C0000
ENCODING 64
SWIDTH 666 0
DWIDTH 8 0
BBX 8 8 0 -2
BITMAP
3c
66
6e
6e
60
62
3c
00
ENDCHAR
STARTCHAR C0001
ENCODING 65
SWIDTH 666 0
DWIDTH 8 0
BBX 8 8 0 -2
BITMAP
18
3c
66
7e
66
66
66
00
ENDCHAR
STARTCHAR C0002
ENCODING 66
SWIDTH 666 0
DWIDTH 8 0
BBX 8 8 0 -2
BITMAP
7c
66
66
7c
66
66
7c
00
ENDCHAR
STARTCHAR C0003
ENCODING 67
SWIDTH 666 0
DWIDTH 8 0
BBX 8 8 0 -2
BITMAP
3c
66
60
60
60
66
3c
00
ENDCHAR
STARTCHAR C0004
ENCODING 68
SWIDTH 666 0
DWIDTH 8 0
BBX 8 8 0 -2
BITMAP
78
6c
66
66
66
6c
78
00
ENDCHAR
STARTCHAR C0005
ENCODING 69
SWIDTH 666 0
DWIDTH 8 0
BBX 8 8 0 -2
BITMAP
7e
60
60
78
60
60
7e
00
ENDCHAR
STARTCHAR C0006
ENCODING 70
SWIDTH 666 0
DWIDTH 8 0
BBX 8 8 0 -2
BITMAP
7e
60
60
78
60
60
60
00
ENDCHAR
STARTCHAR C0007
ENCODING 71
SWIDTH 666 0
DWIDTH 8 0
BBX 8 8 0 -2
BITMAP
3c
66
60
6e
66
66
3c
00
ENDCHAR
STARTCHAR C0008
ENCODING 72
SWIDTH 666 0
DWIDTH 8 0
BBX 8 8 0 -2
BITMAP
66
66
66
7e
66
66
66
00
ENDCHAR
STARTCHAR C0009
ENCODING 73
SWIDTH 666 0
DWIDTH 8 0
BBX 8 8 0 -2
BITMAP
3c
18
18
18
18
18
3c
00
ENDCHAR
STARTCHAR C0010
ENCODING 74
SWIDTH 666 0
DWIDTH 8 0
BBX 8 8 0 -2
BITMAP
1e
0c
0c
0c
0c
6c
38
00
ENDCHAR
STARTCHAR C0011
ENCODING 75
SWIDTH 666 0
DWIDTH 8 0
BBX 8 8 0 -2
BITMAP
66
6c
78
70
78
6c
66
00
ENDCHAR
STARTCHAR C0012
ENCODING 76
SWIDTH 666 0
DWIDTH 8 0
BBX 8 8 0 -2
BITMAP
60
60
60
60
60
60
7e
00
ENDCHAR
STARTCHAR C0013
ENCODING 77
SWIDTH 666 0
DWIDTH 8 0
BBX 8 8 0 -2
BITMAP
63
77
7f
6b
63
63
63
00
ENDCHAR
STARTCHAR C0014
ENCODING 78
SWIDTH 666 0
DWIDTH 8 0
BBX 8 8 0 -2
BITMAP
66
76
7e
7e
6e
66
66
00
ENDCHAR
STARTCHAR C0015
ENCODING 79
SWIDTH 666 0
DWIDTH 8 0
BBX 8 8 0 -2
BITMAP
3c
66
66
66
66
66
3c
00
ENDCHAR
STARTCHAR C0016
ENCODING 80
SWIDTH 666 0
DWIDTH 8 0
BBX 8 8 0 -2
BITMAP
7c
66
66
7c
60
60
60
00
ENDCHAR
STARTCHAR C0017
ENCODING 81
SWIDTH 666 0
DWIDTH 8 0
BBX 8 8 0 -2
BITMAP
3c
66
66
66
66
3c
0e
00
ENDCHAR
STARTCHAR C0018
ENCODING 82
SWIDTH 666 0
DWIDTH 8 0
BBX 8 8 0 -2
BITMAP
7c
66
66
7c
78
6c
66
00
ENDCHAR
STARTCHAR C0019
ENCODING 83
SWIDTH 666 0
DWIDTH 8 0
BBX 8 8 0 -2
BITMAP
3c
66
60
3c
06
66
3c
00
ENDCHAR
STARTCHAR C0020
ENCODING 84
SWIDTH 666 0
DWIDTH 8 0
BBX 8 8 0 -2
BITMAP
7e
18
18
18
18
18
18
00
ENDCHAR
STARTCHAR C0021
ENCODING 85
SWIDTH 666 0
DWIDTH 8 0
BBX 8 8 0 -2
BITMAP
66
66
66
66
66
66
3c
00
ENDCHAR
STARTCHAR C0022
ENCODING 86
SWIDTH 666 0
DWIDTH 8 0
BBX 8 8 0 -2
BITMAP
66
66
66
66
66
3c
18
00
ENDCHAR
STARTCHAR C0023
ENCODING 87
SWIDTH 666 0
DWIDTH 8 0
BBX 8 8 0 -2
BITMAP
63
63
63
6b
7f
77
63
00
ENDCHAR
STARTCHAR C0024
ENCODING 88
SWIDTH 666 0
DWIDTH 8 0
BBX 8 8 0 -2
BITMAP
66
66
3c
18
3c
66
66
00
ENDCHAR
STARTCHAR C0025
ENCODING 89
SWIDTH 666 0
DWIDTH 8 0
BBX 8 8 0 -2
BITMAP
66
66
66
3c
18
18
18
00
ENDCHAR
STARTCHAR C0026
ENCODING 90
SWIDTH 666 0
DWIDTH 8 0
BBX 8 8 0 -2
BITMAP
7e
06
0c
18
30
60
7e
00
ENDCHAR
STARTCHAR C0027
ENCODING 91
SWIDTH 666 0
DWIDTH 8 0
BBX 8 8 0 -2
BITMAP
3c
30
30
30
30
30
3c
00
ENDCHAR
STARTCHAR C0028
ENCODING 92
SWIDTH 666 0
DWIDTH 8 0
BBX 8 8 0 -2
BITMAP
00
60
30
18
0c
06
03
00
ENDCHAR
STARTCHAR C0029
ENCODING 93
SWIDTH 666 0
DWIDTH 8 0
BBX 8 8 0 -2
BITMAP
3c
0c
0c
0c
0c
0c
3c
00
ENDCHAR
STARTCHAR C0030
ENCODING 94
SWIDTH 666 0
DWIDTH 8 0
BBX 8 8 0 -2
BITMAP
00
18
3c
7e
18
18
18
18
ENDCHAR
STARTCHAR C0031
ENCODING 95
SWIDTH 666 0
DWIDTH 8 0
BBX 8 8 0 -2
BITMAP
00
00
00
00
00
00
00
ff
ENDCHAR
STARTCHAR C0032
ENCODING 96
SWIDTH 666 0
DWIDTH 8 0
BBX 8 8 0 -2
BITMAP
60
30
18
00
00
00
00
00
ENDCHAR
STARTCHAR C0257
ENCODING 97
SWIDTH 666 0
DWIDTH 8 0
BBX 8 8 0 -2
BITMAP
00
00
3c
06
3e
66
3e
00
ENDCHAR
STARTCHAR C0258
ENCODING 98
SWIDTH 666 0
DWIDTH 8 0
BBX 8 8 0 -2
BITMAP
00
60
60
7c
66
66
7c
00
ENDCHAR
STARTCHAR C0259
ENCODING 99
SWIDTH 666 0
DWIDTH 8 0
BBX 8 8 0 -2
BITMAP
00
00
3c
60
60
60
3c
00
ENDCHAR
STARTCHAR C0260
ENCODING 100
SWIDTH 666 0
DWIDTH 8 0
BBX 8 8 0 -2
BITMAP
00
06
06
3e
66
66
3e
00
ENDCHAR
STARTCHAR C0261
ENCODING 101
SWIDTH 666 0
DWIDTH 8 0
BBX 8 8 0 -2
BITMAP
00
00
3c
66
7e
60
3c
00
ENDCHAR
STARTCHAR C0262
ENCODING 102
SWIDTH 666 0
DWIDTH 8 0
BBX 8 8 0 -2
BITMAP
00
0e
18
3e
18
18
18
00
ENDCHAR
STARTCHAR C0263
ENCODING 103
SWIDTH 666 0
DWIDTH 8 0
BBX 8 8 0 -2
BITMAP
00
00
3e
66
66
3e
06
7c
ENDCHAR
STARTCHAR C0264
ENCODING 104
SWIDTH 666 0
DWIDTH 8 0
BBX 8 8 0 -2
BITMAP
00
60
60
7c
66
66
66
00
ENDCHAR
STARTCHAR C0265
ENCODING 105
SWIDTH 666 0
DWIDTH 8 0
BBX 8 8 0 -2
BITMAP
00
18
00
38
18
18
3c
00
ENDCHAR
STARTCHAR C0266
ENCODING 106
SWIDTH 666 0
DWIDTH 8 0
BBX 8 8 0 -2
BITMAP
00
06
00
06
06
06
06
3c
ENDCHAR
STARTCHAR C0267
ENCODING 107
SWIDTH 666 0
DWIDTH 8 0
BBX 8 8 0 -2
BITMAP
00
60
60
6c
78
6c
66
00
ENDCHAR
STARTCHAR C0268
ENCODING 108
SWIDTH 666 0
DWIDTH 8 0
BBX 8 8 0 -2
BITMAP
00
38
18
18
18
18
3c
00
ENDCHAR
STARTCHAR C0269
ENCODING 109
SWIDTH 666 0
DWIDTH 8 0
BBX 8 8 0 -2
BITMAP
00
00
66
7f
7f
6b
63
00
ENDCHAR
STARTCHAR C0270
ENCODING 110
SWIDTH 666 0
DWIDTH 8 0
BBX 8 8 0 -2
BITMAP
00
00
7c
66
66
66
66
00
ENDCHAR
STARTCHAR C0271
ENCODING 111
SWIDTH 666 0
DWIDTH 8 0
BBX 8 8 0 -2
BITMAP
00
00
3c
66
66
66
3c
00
ENDCHAR
STARTCHAR C0272
ENCODING 112
SWIDTH 666 0
DWIDTH 8 0
BBX 8 8 0 -2
BITMAP
00
00
7c
66
66
7c
60
60
ENDCHAR
STARTCHAR C0273
ENCODING 113
SWIDTH 666 0
DWIDTH 8 0
BBX 8 8 0 -2
BITMAP
00
00
3e
66
66
3e
06
06
ENDCHAR
STARTCHAR C0274
ENCODING 114
SWIDTH 666 0
DWIDTH 8 0
BBX 8 8 0 -2
BITMAP
00
00
7c
66
60
60
60
00
ENDCHAR
STARTCHAR C0275
ENCODING 115
SWIDTH 666 0
DWIDTH 8 0
BBX 8 8 0 -2
BITMAP
00
00
3e
60
3c
06
7c
00
ENDCHAR
STARTCHAR C0276
ENCODING 116
SWIDTH 666 0
DWIDTH 8 0
BBX 8 8 0 -2
BITMAP
00
18
7e
18
18
18
0e
00
ENDCHAR
STARTCHAR C0277
ENCODING 117
SWIDTH 666 0
DWIDTH 8 0
BBX 8 8 0 -2
BITMAP
00
00
66
66
66
66
3e
00
ENDCHAR
STARTCHAR C0278
ENCODING 118
SWIDTH 666 0
DWIDTH 8 0
BBX 8 8 0 -2
BITMAP
00
00
66
66
66
3c
18
00
ENDCHAR
STARTCHAR C0279
ENCODING 119
SWIDTH 666 0
DWIDTH 8 0
BBX 8 8 0 -2
BITMAP
00
00
63
6b
7f
3e
36
00
ENDCHAR
STARTCHAR C0280
ENCODING 120
SWIDTH 666 0
DWIDTH 8 0
BBX 8 8 0 -2
BITMAP
00
00
66
3c
18
3c
66
00
ENDCHAR
STARTCHAR C0281
ENCODING 121
SWIDTH 666 0
DWIDTH 8 0
BBX 8 8 0 -2
BITMAP
00
00
66
66
66
3e
0c
78
ENDCHAR
STARTCHAR C0282
ENCODING 122
SWIDTH 666 0
DWIDTH 8 0
BBX 8 8 0 -2
BITMAP
00
00
7e
0c
18
30
7e
00
ENDCHAR
STARTCHAR C0123
ENCODING 123
SWIDTH 666 0
DWIDTH 8 0
BBX 8 8 0 -2
BITMAP
1c
30
30
60
30
30
1c
00
ENDCHAR
STARTCHAR C0349
ENCODING 124
SWIDTH 666 0
DWIDTH 8 0
BBX 8 8 0 -2
BITMAP
18
18
18
18
18
18
18
18
ENDCHAR
STARTCHAR C0125
ENCODING 125
SWIDTH 666 0
DWIDTH 8 0
BBX 8 8 0 -2
BITMAP
38
0c
0c
06
0c
0c
38
00
ENDCHAR
STARTCHAR C0126
ENCODING 126
SWIDTH 666 0
DWIDTH 8 0
BBX 8 8 0 -2
BITMAP
00
32
4c
00
00
00
00
00
ENDCHAR
ENDFONT
